<?xml version="1.0" encoding="utf-8" standalone="no"?>
<!DOCTYPE svg PUBLIC "-//W3C//DTD SVG 1.1//EN"
  "http://www.w3.org/Graphics/SVG/1.1/DTD/svg11.dtd">
<svg xmlns:xlink="http://www.w3.org/1999/xlink" width="658.509678pt" height="610.151993pt" viewBox="0 0 658.509678 610.151993" xmlns="http://www.w3.org/2000/svg" version="1.1">
 <metadata>
  <rdf:RDF xmlns:dc="http://purl.org/dc/elements/1.1/" xmlns:cc="http://creativecommons.org/ns#" xmlns:rdf="http://www.w3.org/1999/02/22-rdf-syntax-ns#">
   <cc:Work>
    <dc:type rdf:resource="http://purl.org/dc/dcmitype/StillImage"/>
    <dc:date>2023-12-21T13:43:06.076185</dc:date>
    <dc:format>image/svg+xml</dc:format>
    <dc:creator>
     <cc:Agent>
      <dc:title>Matplotlib v3.5.2, https://matplotlib.org/</dc:title>
     </cc:Agent>
    </dc:creator>
   </cc:Work>
  </rdf:RDF>
 </metadata>
 <defs>
  <style type="text/css">*{stroke-linejoin: round; stroke-linecap: butt}</style>
 </defs>
 <g id="figure_1">
  <g id="patch_1">
   <path d="M 0 610.151993 
L 658.509678 610.151993 
L 658.509678 0 
L 0 0 
z
" style="fill: #ffffff"/>
  </g>
  <g id="axes_1">
   <g id="PatchCollection_1">
    <path d="M 300.642361 274.906432 
L 301.451814 272.326124 
L 302.472399 269.821805 
L 303.697092 267.410719 
L 305.117458 265.109466 
L 306.72372 262.933891 
L 308.504818 260.898971 
L 310.107184 259.326854 
L 310.107184 259.326854 
" clip-path="url(#p88750ce4d3)" style="fill: none; stroke: #000000; stroke-width: 0.5"/>
    <path d="M 300.642361 274.906432 
L 298.540073 274.341589 
" clip-path="url(#p88750ce4d3)" style="fill: none; stroke: #000000; stroke-width: 0.5"/>
    <path d="M 310.107184 259.326854 
L 312.175675 257.584857 
L 314.381464 256.020344 
L 316.709366 254.644088 
L 319.143352 253.465564 
L 321.666664 252.492886 
L 324.261929 251.73275 
L 326.45789 251.267042 
L 326.45789 251.267042 
" clip-path="url(#p88750ce4d3)" style="fill: none; stroke: #000000; stroke-width: 0.5"/>
    <path d="M 326.45789 251.267042 
L 313.252614 176.376197 
" clip-path="url(#p88750ce4d3)" style="fill: none; stroke: #000000; stroke-width: 0.5"/>
    <path d="M 299.429824 295.209935 
L 298.587633 292.559836 
L 297.959918 289.85091 
L 297.550693 287.100484 
L 297.362577 284.326151 
L 297.396772 281.545658 
L 297.653061 278.776791 
L 298.129802 276.037261 
L 298.540073 274.341589 
L 298.540073 274.341589 
" clip-path="url(#p88750ce4d3)" style="fill: none; stroke: #000000; stroke-width: 0.5"/>
    <path d="M 299.429824 295.209935 
L 298.881048 295.408826 
" clip-path="url(#p88750ce4d3)" style="fill: none; stroke: #000000; stroke-width: 0.5"/>
    <path d="M 298.540073 274.341589 
L 299.368415 271.687129 
L 300.406239 269.107356 
L 301.646905 266.618771 
L 303.082478 264.237292 
L 304.703774 261.978154 
L 306.500424 259.855806 
L 308.460934 257.883825 
L 309.768818 256.729241 
L 309.768818 256.729241 
" clip-path="url(#p88750ce4d3)" style="fill: none; stroke: #000000; stroke-width: 0.5"/>
    <path d="M 309.768818 256.729241 
L 308.009286 254.632313 
" clip-path="url(#p88750ce4d3)" style="fill: none; stroke: #000000; stroke-width: 0.5"/>
    <path d="M 314.357988 313.930326 
L 312.001079 312.433465 
L 309.76965 310.755269 
L 307.677619 308.906208 
L 305.738038 306.897816 
L 303.963004 304.74262 
L 302.363589 302.454063 
L 300.949771 300.046423 
L 299.730368 297.534715 
L 298.881048 295.408826 
L 298.881048 295.408826 
" clip-path="url(#p88750ce4d3)" style="fill: none; stroke: #000000; stroke-width: 0.5"/>
    <path d="M 314.357988 313.930326 
L 306.746645 327.030923 
" clip-path="url(#p88750ce4d3)" style="fill: none; stroke: #000000; stroke-width: 0.5"/>
    <path d="M 298.881048 295.408826 
L 298.034087 292.748324 
L 297.399728 290.029279 
L 296.981928 287.268652 
L 296.783295 284.483664 
L 296.805066 281.691685 
L 297.047107 278.910133 
L 297.507907 276.156358 
L 298.184591 273.447536 
L 298.897504 271.272104 
L 298.897504 271.272104 
" clip-path="url(#p88750ce4d3)" style="fill: none; stroke: #000000; stroke-width: 0.5"/>
    <path d="M 298.897504 271.272104 
L 237.629561 248.972396 
" clip-path="url(#p88750ce4d3)" style="fill: none; stroke: #000000; stroke-width: 0.5"/>
    <path d="M 349.131223 330.913862 
L 345.958109 331.932439 
L 342.724726 332.739524 
L 339.445154 333.331603 
L 336.133674 333.706099 
L 332.804704 333.86138 
L 329.472741 333.796771 
L 326.152294 333.512553 
L 322.857821 333.009963 
L 319.603667 332.291189 
L 316.404003 331.359363 
L 313.272762 330.218541 
L 310.223577 328.87369 
L 307.269727 327.330667 
L 306.746645 327.030923 
L 306.746645 327.030923 
" clip-path="url(#p88750ce4d3)" style="fill: none; stroke: #000000; stroke-width: 0.5"/>
    <path d="M 349.131223 330.913862 
L 352.453778 340.199782 
" clip-path="url(#p88750ce4d3)" style="fill: none; stroke: #000000; stroke-width: 0.5"/>
    <path d="M 306.746645 327.030923 
L 303.921899 325.262601 
L 301.219928 323.311832 
L 298.652496 321.187109 
L 296.230785 318.897685 
L 293.965338 316.453528 
L 291.866021 313.865282 
L 289.941975 311.144217 
L 288.201578 308.302181 
L 286.652408 305.35155 
L 285.301212 302.305172 
L 284.153872 299.176312 
L 283.215385 295.978595 
L 282.489838 292.725946 
L 282.381608 292.132862 
L 282.381608 292.132862 
" clip-path="url(#p88750ce4d3)" style="fill: none; stroke: #000000; stroke-width: 0.5"/>
    <path d="M 282.381608 292.132862 
L 277.808759 292.939179 
" clip-path="url(#p88750ce4d3)" style="fill: none; stroke: #000000; stroke-width: 0.5"/>
    <path d="M 386.54537 309.469889 
L 384.852612 312.739387 
L 382.963687 315.899609 
L 380.885622 318.9388 
L 378.626145 321.845656 
L 376.193663 324.609362 
L 373.597224 327.219638 
L 370.846485 329.666775 
L 367.95168 331.94167 
L 364.923577 334.03586 
L 361.773439 335.941555 
L 358.512985 337.651666 
L 355.154343 339.159832 
L 352.453778 340.199782 
L 352.453778 340.199782 
" clip-path="url(#p88750ce4d3)" style="fill: none; stroke: #000000; stroke-width: 0.5"/>
    <path d="M 386.54537 309.469889 
L 403.190662 317.453909 
" clip-path="url(#p88750ce4d3)" style="fill: none; stroke: #000000; stroke-width: 0.5"/>
    <path d="M 352.453778 340.199782 
L 348.951067 341.333826 
L 345.385737 342.252229 
L 341.77105 342.951573 
L 338.120453 343.429257 
L 334.447525 343.683504 
L 330.765929 343.713368 
L 327.08936 343.518739 
L 323.431494 343.100341 
L 319.805938 342.459729 
L 316.226178 341.599287 
L 312.705531 340.522215 
L 309.257092 339.23252 
L 306.605784 338.072731 
L 306.605784 338.072731 
" clip-path="url(#p88750ce4d3)" style="fill: none; stroke: #000000; stroke-width: 0.5"/>
    <path d="M 306.605784 338.072731 
L 305.010558 341.493704 
" clip-path="url(#p88750ce4d3)" style="fill: none; stroke: #000000; stroke-width: 0.5"/>
    <path d="M 408.68472 264.627189 
L 409.569745 268.709671 
L 410.237258 272.833306 
L 410.685383 276.986511 
L 410.912862 281.157625 
L 410.919056 285.334932 
L 410.703947 289.506701 
L 410.268141 293.661218 
L 409.61286 297.786813 
L 408.739945 301.871902 
L 407.651847 305.905012 
L 406.351623 309.874817 
L 404.842923 313.770168 
L 403.190662 317.453909 
L 403.190662 317.453909 
" clip-path="url(#p88750ce4d3)" style="fill: none; stroke: #000000; stroke-width: 0.5"/>
    <path d="M 408.68472 264.627189 
L 414.095815 263.303102 
" clip-path="url(#p88750ce4d3)" style="fill: none; stroke: #000000; stroke-width: 0.5"/>
    <path d="M 403.190662 317.453909 
L 401.284897 321.171165 
L 399.184885 324.782243 
L 396.896525 328.277002 
L 394.426242 331.645627 
L 391.780975 334.878659 
L 388.968151 337.967017 
L 385.995671 340.902029 
L 382.871882 343.675452 
L 379.605556 346.279497 
L 376.205868 348.706851 
L 372.682363 350.950698 
L 369.044938 353.004735 
L 365.430782 354.804123 
L 365.430782 354.804123 
" clip-path="url(#p88750ce4d3)" style="fill: none; stroke: #000000; stroke-width: 0.5"/>
    <path d="M 365.430782 354.804123 
L 369.340232 363.187965 
" clip-path="url(#p88750ce4d3)" style="fill: none; stroke: #000000; stroke-width: 0.5"/>
    <path d="M 399.074071 231.985378 
L 401.606141 235.465495 
L 403.957511 239.070168 
L 406.122064 242.790021 
L 408.094173 246.615382 
L 409.868708 250.536304 
L 411.441057 254.542589 
L 412.807128 258.62382 
L 413.963371 262.769385 
L 414.095815 263.303102 
L 414.095815 263.303102 
" clip-path="url(#p88750ce4d3)" style="fill: none; stroke: #000000; stroke-width: 0.5"/>
    <path d="M 399.074071 231.985378 
L 399.378729 231.751605 
" clip-path="url(#p88750ce4d3)" style="fill: none; stroke: #000000; stroke-width: 0.5"/>
    <path d="M 414.095815 263.303102 
L 415.011843 267.508277 
L 415.712308 271.754681 
L 416.19539 276.031273 
L 416.459832 280.32693 
L 416.504947 284.630483 
L 416.330617 288.93074 
L 415.937296 293.216518 
L 415.326006 297.476674 
L 415.232281 298.018533 
L 415.232281 298.018533 
" clip-path="url(#p88750ce4d3)" style="fill: none; stroke: #000000; stroke-width: 0.5"/>
    <path d="M 415.232281 298.018533 
L 417.520842 298.422068 
" clip-path="url(#p88750ce4d3)" style="fill: none; stroke: #000000; stroke-width: 0.5"/>
    <path d="M 380.745783 213.91444 
L 384.222903 216.483716 
L 387.564526 219.226908 
L 390.761961 222.136882 
L 393.806895 225.206071 
L 396.691409 228.426494 
L 399.378729 231.751605 
L 399.378729 231.751605 
" clip-path="url(#p88750ce4d3)" style="fill: none; stroke: #000000; stroke-width: 0.5"/>
    <path d="M 380.745783 213.91444 
L 382.747397 211.055839 
" clip-path="url(#p88750ce4d3)" style="fill: none; stroke: #000000; stroke-width: 0.5"/>
    <path d="M 399.378729 231.751605 
L 401.922321 235.247557 
L 404.284389 238.868631 
L 406.458792 242.60541 
L 408.439873 246.448177 
L 410.222483 250.386939 
L 411.785546 254.366246 
L 411.785546 254.366246 
" clip-path="url(#p88750ce4d3)" style="fill: none; stroke: #000000; stroke-width: 0.5"/>
    <path d="M 411.785546 254.366246 
L 434.203027 246.206951 
" clip-path="url(#p88750ce4d3)" style="fill: none; stroke: #000000; stroke-width: 0.5"/>
    <path d="M 362.307717 200.415616 
L 366.415634 202.028171 
L 370.437823 203.844021 
L 374.364231 205.858627 
L 378.185043 208.066954 
L 381.89071 210.463483 
L 382.747397 211.055839 
L 382.747397 211.055839 
" clip-path="url(#p88750ce4d3)" style="fill: none; stroke: #000000; stroke-width: 0.5"/>
    <path d="M 362.307717 200.415616 
L 367.759879 185.435922 
" clip-path="url(#p88750ce4d3)" style="fill: none; stroke: #000000; stroke-width: 0.5"/>
    <path d="M 382.747397 211.055839 
L 386.29798 213.676655 
L 389.71314 216.471651 
L 392.98434 219.43384 
L 396.103404 222.55582 
L 399.062537 225.829785 
L 399.736719 226.623685 
L 399.736719 226.623685 
" clip-path="url(#p88750ce4d3)" style="fill: none; stroke: #000000; stroke-width: 0.5"/>
    <path d="M 399.736719 226.623685 
L 411.239146 216.972002 
" clip-path="url(#p88750ce4d3)" style="fill: none; stroke: #000000; stroke-width: 0.5"/>
    <path d="M 350.213509 180.734386 
L 354.913624 181.675081 
L 359.56551 182.830909 
L 364.159326 184.199426 
L 367.759879 185.435922 
L 367.759879 185.435922 
" clip-path="url(#p88750ce4d3)" style="fill: none; stroke: #000000; stroke-width: 0.5"/>
    <path d="M 350.213509 180.734386 
L 350.448474 179.401833 
" clip-path="url(#p88750ce4d3)" style="fill: none; stroke: #000000; stroke-width: 0.5"/>
    <path d="M 367.759879 185.435922 
L 372.225239 187.178491 
L 376.605745 189.124552 
L 380.89213 191.269986 
L 384.223268 193.112926 
L 384.223268 193.112926 
" clip-path="url(#p88750ce4d3)" style="fill: none; stroke: #000000; stroke-width: 0.5"/>
    <path d="M 384.223268 193.112926 
L 386.377228 189.382157 
" clip-path="url(#p88750ce4d3)" style="fill: none; stroke: #000000; stroke-width: 0.5"/>
    <path d="M 418.838329 283.363119 
L 418.725573 287.783975 
L 418.387598 292.193334 
L 417.825282 296.579731 
L 417.520842 298.422068 
L 417.520842 298.422068 
" clip-path="url(#p88750ce4d3)" style="fill: none; stroke: #000000; stroke-width: 0.5"/>
    <path d="M 418.838329 283.363119 
L 436.667742 283.363119 
" clip-path="url(#p88750ce4d3)" style="fill: none; stroke: #000000; stroke-width: 0.5"/>
    <path d="M 417.520842 298.422068 
L 416.642125 302.756182 
L 415.543607 307.039864 
L 414.228144 311.261977 
L 413.608411 313.02346 
L 413.608411 313.02346 
" clip-path="url(#p88750ce4d3)" style="fill: none; stroke: #000000; stroke-width: 0.5"/>
    <path d="M 413.608411 313.02346 
L 426.235998 317.619525 
" clip-path="url(#p88750ce4d3)" style="fill: none; stroke: #000000; stroke-width: 0.5"/>
    <path d="M 388.732082 350.833995 
L 385.28919 353.579234 
L 381.713395 356.148969 
L 378.013637 358.536777 
L 374.199161 360.736691 
L 370.279503 362.743211 
L 369.340232 363.187965 
L 369.340232 363.187965 
" clip-path="url(#p88750ce4d3)" style="fill: none; stroke: #000000; stroke-width: 0.5"/>
    <path d="M 388.732082 350.833995 
L 390.880213 353.394038 
" clip-path="url(#p88750ce4d3)" style="fill: none; stroke: #000000; stroke-width: 0.5"/>
    <path d="M 369.340232 363.187965 
L 365.304133 364.948577 
L 361.185085 366.505267 
L 356.993382 367.854145 
L 352.739503 368.991839 
L 348.434078 369.915506 
L 347.411701 370.102005 
L 347.411701 370.102005 
" clip-path="url(#p88750ce4d3)" style="fill: none; stroke: #000000; stroke-width: 0.5"/>
    <path d="M 347.411701 370.102005 
L 350.66381 388.545633 
" clip-path="url(#p88750ce4d3)" style="fill: none; stroke: #000000; stroke-width: 0.5"/>
    <path d="M 402.148213 342.126037 
L 399.185927 345.485648 
L 396.062641 348.696133 
L 392.785854 351.749785 
L 390.880213 353.394038 
L 390.880213 353.394038 
" clip-path="url(#p88750ce4d3)" style="fill: none; stroke: #000000; stroke-width: 0.5"/>
    <path d="M 402.148213 342.126037 
L 412.558018 350.8609 
" clip-path="url(#p88750ce4d3)" style="fill: none; stroke: #000000; stroke-width: 0.5"/>
    <path d="M 390.880213 353.394038 
L 387.37954 356.188213 
L 383.746209 358.807571 
L 379.988942 361.245822 
L 377.826731 362.534184 
L 377.826731 362.534184 
" clip-path="url(#p88750ce4d3)" style="fill: none; stroke: #000000; stroke-width: 0.5"/>
    <path d="M 377.826731 362.534184 
L 384.604993 374.274479 
" clip-path="url(#p88750ce4d3)" style="fill: none; stroke: #000000; stroke-width: 0.5"/>
    <path d="M 320.9795 346.528692 
L 317.274273 345.762035 
L 313.620699 344.778231 
L 310.031493 343.580703 
L 306.519146 342.173618 
L 305.010558 341.493704 
L 305.010558 341.493704 
" clip-path="url(#p88750ce4d3)" style="fill: none; stroke: #000000; stroke-width: 0.5"/>
    <path d="M 320.9795 346.528692 
L 314.751507 381.849392 
" clip-path="url(#p88750ce4d3)" style="fill: none; stroke: #000000; stroke-width: 0.5"/>
    <path d="M 305.010558 341.493704 
L 301.630008 339.794187 
L 298.355554 337.898291 
L 295.198591 335.812612 
L 292.170104 333.544411 
L 290.888895 332.497212 
L 290.888895 332.497212 
" clip-path="url(#p88750ce4d3)" style="fill: none; stroke: #000000; stroke-width: 0.5"/>
    <path d="M 290.888895 332.497212 
L 282.748503 342.198553 
" clip-path="url(#p88750ce4d3)" style="fill: none; stroke: #000000; stroke-width: 0.5"/>
    <path d="M 293.715192 349.877511 
L 290.181137 347.707851 
L 286.769338 345.350607 
L 283.489741 342.812652 
L 282.748503 342.198553 
L 282.748503 342.198553 
" clip-path="url(#p88750ce4d3)" style="fill: none; stroke: #000000; stroke-width: 0.5"/>
    <path d="M 293.715192 349.877511 
L 279.940815 373.735432 
" clip-path="url(#p88750ce4d3)" style="fill: none; stroke: #000000; stroke-width: 0.5"/>
    <path d="M 282.748503 342.198553 
L 279.644896 339.448173 
L 276.694261 336.534288 
L 273.9052 333.465394 
L 273.28186 332.73191 
L 273.28186 332.73191 
" clip-path="url(#p88750ce4d3)" style="fill: none; stroke: #000000; stroke-width: 0.5"/>
    <path d="M 273.28186 332.73191 
L 252.500679 350.169391 
" clip-path="url(#p88750ce4d3)" style="fill: none; stroke: #000000; stroke-width: 0.5"/>
    <path d="M 280.296693 302.224275 
L 279.21203 298.924319 
L 278.337278 295.562621 
L 277.808759 292.939179 
L 277.808759 292.939179 
" clip-path="url(#p88750ce4d3)" style="fill: none; stroke: #000000; stroke-width: 0.5"/>
    <path d="M 280.296693 302.224275 
L 240.543823 316.693137 
" clip-path="url(#p88750ce4d3)" style="fill: none; stroke: #000000; stroke-width: 0.5"/>
    <path d="M 277.808759 292.939179 
L 277.313605 289.501007 
L 277.035896 286.038481 
L 276.970962 283.363119 
L 276.970962 283.363119 
" clip-path="url(#p88750ce4d3)" style="fill: none; stroke: #000000; stroke-width: 0.5"/>
    <path d="M 276.970962 283.363119 
L 230.036809 283.363119 
" clip-path="url(#p88750ce4d3)" style="fill: none; stroke: #000000; stroke-width: 0.5"/>
    <path d="M 303.386489 259.25511 
L 305.326102 257.116456 
L 307.424482 255.133342 
L 308.009286 254.632313 
L 308.009286 254.632313 
" clip-path="url(#p88750ce4d3)" style="fill: none; stroke: #000000; stroke-width: 0.5"/>
    <path d="M 303.386489 259.25511 
L 262.596254 225.028039 
" clip-path="url(#p88750ce4d3)" style="fill: none; stroke: #000000; stroke-width: 0.5"/>
    <path d="M 308.009286 254.632313 
L 310.290805 252.86296 
L 312.70167 251.274354 
L 313.364593 250.882487 
L 313.364593 250.882487 
" clip-path="url(#p88750ce4d3)" style="fill: none; stroke: #000000; stroke-width: 0.5"/>
    <path d="M 313.364593 250.882487 
L 283.134836 198.523012 
" clip-path="url(#p88750ce4d3)" style="fill: none; stroke: #000000; stroke-width: 0.5"/>
   </g>
   <g id="text_1">
    <text style="font: 9px 'sans-serif'; text-anchor: start" x="353.910148" y="179.460653" transform="rotate(-80, 353.910148, 179.460653)">BRA006_Illumina</text>
   </g>
   <g id="text_2">
    <text style="font: 9px 'sans-serif'; text-anchor: start" x="389.61002" y="190.621392" transform="rotate(-60, 389.61002, 190.621392)">BRA006_minion</text>
   </g>
   <g id="text_3">
    <text style="font: 9px 'sans-serif'; text-anchor: start" x="413.853133" y="219.242182" transform="rotate(-40, 413.853133, 219.242182)">Micromonospora_aurantiaca_ATCC_27029</text>
   </g>
   <g id="text_4">
    <text style="font: 9px 'sans-serif'; text-anchor: start" x="435.882924" y="249.234258" transform="rotate(-20, 435.882924, 249.234258)">Micromonospora_marina_DSM_45555</text>
   </g>
   <g id="text_5">
    <text style="font: 9px 'sans-serif'; text-anchor: start" x="437.210928" y="286.782416" transform="rotate(-0, 437.210928, 286.782416)">Micromonospora_tulbaghiae_DSM_45142</text>
   </g>
   <g id="text_6">
    <text style="font: 9px 'sans-serif'; text-anchor: start" x="425.576958" y="321.018394" transform="rotate(-340, 425.576958, 321.018394)">Micromonospora_provocatoris_MT25</text>
   </g>
   <g id="text_7">
    <text style="font: 9px 'sans-serif'; text-anchor: start" x="410.776242" y="353.829387" transform="rotate(-320, 410.776242, 353.829387)">Micromonospora_chalcea_DSM_43026</text>
   </g>
   <g id="text_8">
    <text style="font: 9px 'sans-serif'; text-anchor: start" x="381.915388" y="376.454541" transform="rotate(-300, 381.915388, 376.454541)">Micromonospora_fluminis_A38</text>
   </g>
   <g id="text_9">
    <text style="font: 9px 'sans-serif'; text-anchor: start" x="347.390783" y="389.674322" transform="rotate(-280, 347.390783, 389.674322)">Micromonospora_purpurea_DSM_43036</text>
   </g>
   <g id="text_10">
    <text style="font: 9px 'sans-serif'; text-anchor: end" x="318.024534" y="382.978081" transform="rotate(-80, 318.024534, 382.978081)">Micromonospora_sediminicola_DSM_45794</text>
   </g>
   <g id="text_11">
    <text style="font: 9px 'sans-serif'; text-anchor: end" x="282.63042" y="375.915494" transform="rotate(-60, 282.63042, 375.915494)">Micromonospora_humi_DSM_45647</text>
   </g>
   <g id="text_12">
    <text style="font: 9px 'sans-serif'; text-anchor: end" x="254.282456" y="353.137878" transform="rotate(-40, 254.282456, 353.137878)">Micromonospora_ferruginea_28ISP2-46</text>
   </g>
   <g id="text_13">
    <text style="font: 9px 'sans-serif'; text-anchor: end" x="241.202863" y="320.092005" transform="rotate(-20, 241.202863, 320.092005)">Micromonospora_chaiyaphumensis_DSM_45246</text>
   </g>
   <g id="text_14">
    <text style="font: 9px 'sans-serif'; text-anchor: end" x="229.493622" y="286.782416" transform="rotate(-0, 229.493622, 286.782416)">Micromonospora_solifontis_PPF5-17</text>
   </g>
   <g id="text_15">
    <text style="font: 9px 'sans-serif'; text-anchor: end" x="235.949663" y="251.999703" transform="rotate(-340, 235.949663, 251.999703)">Micromonospora_globbae_WPS1-2</text>
   </g>
   <g id="text_16">
    <text style="font: 9px 'sans-serif'; text-anchor: end" x="259.982267" y="227.298219" transform="rotate(-320, 259.982267, 227.298219)">Micromonospora_citrea_DSM_43903</text>
   </g>
   <g id="text_17">
    <text style="font: 9px 'sans-serif'; text-anchor: end" x="279.902045" y="199.762247" transform="rotate(-300, 279.902045, 199.762247)">Micromonospora_endolithica_JCM_12677</text>
   </g>
   <g id="text_18">
    <text style="font: 9px 'sans-serif'; text-anchor: end" x="309.79094" y="176.435017" transform="rotate(-280, 309.79094, 176.435017)">Salinispora_cortesiana_CNY202</text>
   </g>
  </g>
 </g>
 <defs>
  <clipPath id="p88750ce4d3">
   <path d="M 446.18653 283.363119 
C 446.18653 268.383684 443.235908 253.549905 437.503527 239.710712 
C 431.771145 225.871519 423.368485 213.296049 412.776425 202.703989 
C 402.184365 192.111929 389.608895 183.709268 375.769701 177.976886 
C 361.930508 172.244505 347.096729 169.293883 332.117295 169.293883 
C 317.13786 169.293883 302.304081 172.244505 288.464888 177.976886 
C 274.625695 183.709268 262.050224 192.111929 251.458164 202.703989 
C 240.866105 213.296049 232.463444 225.871519 226.731062 239.710712 
C 220.998681 253.549905 218.048059 268.383684 218.048059 283.363119 
C 218.048059 298.342554 220.998681 313.176332 226.731062 327.015525 
C 232.463444 340.854719 240.866105 353.430189 251.458164 364.022249 
C 262.050224 374.614309 274.625695 383.016969 288.464888 388.749351 
C 302.304081 394.481733 317.13786 397.432355 332.117295 397.432355 
C 347.096729 397.432355 361.930508 394.481733 375.769701 388.749351 
C 389.608895 383.016969 402.184365 374.614309 412.776425 364.022249 
C 423.368485 353.430189 431.771145 340.854719 437.503527 327.015525 
C 443.235908 313.176332 446.18653 298.342554 446.18653 283.363119 
M 332.117295 283.363119 
C 332.117295 283.363119 332.117295 283.363119 332.117295 283.363119 
C 332.117295 283.363119 332.117295 283.363119 332.117295 283.363119 
C 332.117295 283.363119 332.117295 283.363119 332.117295 283.363119 
C 332.117295 283.363119 332.117295 283.363119 332.117295 283.363119 
C 332.117295 283.363119 332.117295 283.363119 332.117295 283.363119 
C 332.117295 283.363119 332.117295 283.363119 332.117295 283.363119 
C 332.117295 283.363119 332.117295 283.363119 332.117295 283.363119 
C 332.117295 283.363119 332.117295 283.363119 332.117295 283.363119 
C 332.117295 283.363119 332.117295 283.363119 332.117295 283.363119 
C 332.117295 283.363119 332.117295 283.363119 332.117295 283.363119 
C 332.117295 283.363119 332.117295 283.363119 332.117295 283.363119 
C 332.117295 283.363119 332.117295 283.363119 332.117295 283.363119 
C 332.117295 283.363119 332.117295 283.363119 332.117295 283.363119 
C 332.117295 283.363119 332.117295 283.363119 332.117295 283.363119 
C 332.117295 283.363119 332.117295 283.363119 332.117295 283.363119 
C 332.117295 283.363119 332.117295 283.363119 332.117295 283.363119 
M 446.18653 283.363119 
z
"/>
  </clipPath>
 </defs>
</svg>
